<svg xmlns="http://www.w3.org/2000/svg" viewBox="0 0 64 64" stroke-width="1.5" stroke="#CACBD2" fill="none" class="duration-300 transform transition-all" style="width: 48px; height: 48px;"><path d="M50.4 24.38l7.9-1.24M47.93 17.11l4.94-2.91M42.89 11.73l3.32-7.22M33.45 10.69l-.04-5.73M24.29 12.09l-2.67-7.58M17.99 17.03l-5.03-2.74M15.78 23.97l-7.75-1.31M26.22 45.47c0-5.16-3.19-9.49-4.91-12.69A12.24 12.24 0 0119.85 27c0-6.79 6.21-12.3 13-12.3M39.48 45.47c0-5.16 3.19-9.49 4.91-12.69A12.24 12.24 0 0045.85 27c0-6.79-6.21-12.3-13-12.3"></path><rect x="23.63" y="45.19" width="18.93" height="4.25" rx="2.12"></rect><rect x="24.79" y="49.43" width="16.61" height="4.25" rx="2.12"></rect><path d="M36.32 53.68v.84a3.23 3.23 0 11-6.44 0v-.84M24.57 26.25a7.5 7.5 0 017.88-7.11"></path></svg>
