<svg xmlns="http://www.w3.org/2000/svg" viewBox="0 0 64 64" stroke-width="1.5" stroke="#CACBD2" fill="none" class="duration-300 transform transition-all" style="width: 48px; height: 48px;"><path d="M48.11 30v11.75a1.71 1.71 0 01-1 1.58l-11.88 5.23a10.39 10.39 0 01-9.23-.39l-8.53-4.68a1.73 1.73 0 01-.9-1.52V30.33" stroke-linecap="round"></path><path d="M29.32 15.22L8.93 24.88a.86.86 0 000 1.55l19.74 10a7 7 0 006.15 0L55.1 26.6a.86.86 0 000-1.55l-19.73-9.77a6.91 6.91 0 00-6.05-.06z" stroke-linecap="round"></path><path stroke-linecap="round" d="M32 25.86l-21.67 1.29.3 12.3"></path><circle cx="10.66" cy="42.39" r="2.53" stroke-linecap="round"></circle><path stroke-linecap="round" d="M11.53 44.76l2 6.27H7.79l2.03-6.27"></path></svg>
