<svg xmlns="http://www.w3.org/2000/svg" viewBox="0 0 64 64" stroke-width="1.5" stroke="#CACBD2" fill="none" class="duration-300 transform transition-all" style="width: 48px; height: 48px;"><path d="M14 39.87l10.59 10.64s33-14 31.23-42.29c0 0-26.18-3.94-41.82 31.65z"></path><path d="M44.69 9.09a12.3 12.3 0 003.48 6.73 12.31 12.31 0 007 3.52"></path><circle cx="39.46" cy="24.56" r="6.2"></circle><path d="M14.89 37.82l-5.3.68a.27.27 0 01-.28-.37l3.93-9a2.65 2.65 0 011.88-1.53l6.59-1.38M26.55 49.4l-.69 5.3a.27.27 0 00.37.28l9-3.92a2.69 2.69 0 001.53-1.89l1.38-6.59M22.21 48.13c-2.37 7.41-14.1 7.78-14.1 7.78S8 44.51 15.76 41.67"></path></svg>
